#N canvas 478 219 462 593 10;
#X obj 26 50 bng 15 250 50 0 empty empty empty 17 7 0 10 -260097 -1
-1;
#X obj 26 106 soundfiler;
#X obj 98 142 / 44.1;
#X floatatom 26 186 10 0 0 2 Length - -, f 10;
#X floatatom 98 186 10 0 0 2 Duration - -, f 10;
#X obj 26 208 s len;
#X obj 97 207 s dur;
#N canvas 0 22 450 278 (subpatch) 0;
#X array wooshSample 36623 float 4;
#X coords 0 1 36622 -1 200 140 1 0 0;
#X restore 206 125 graph;
#X text 21 2 Read file;
#X msg 26 81 read -resize audio/woosh-reverb.wav wooshSample;
#X obj 28 408 bng 15 250 50 0 empty empty empty 17 7 0 10 -262144 -1
-1;
#X msg 100 39 \; pd dsp 1;
#X obj 99 12 loadbang;
#X obj 28 432 t b b;
#X obj 32 337 f;
#X obj 68 338 + 1;
#X obj 32 360 mod 2;
#X obj 164 517 woosh-play;
#X obj 164 415 bng 15 250 50 0 empty empty empty 17 7 0 10 -262144
-1 -1;
#X obj 164 439 t b b;
#X obj 33 382 sel 0 1;
#X obj 32 294 tgl 15 0 empty empty empty 17 7 0 10 -262144 -1 -1 0
1;
#X obj 28 517 woosh-play;
#X obj 85 462 random 5;
#X obj 221 469 random 5;
#X obj 85 487 + 1.5;
#X obj 221 494 + 1.5;
#X obj 32 314 metro 1500;
#X obj 32 231 notein;
#X msg 32 270 1;
#X msg 69 272 0;
#X obj 69 252 delay 10000;
#X obj 11 251 bng 15 250 50 0 empty empty empty 17 7 0 10 -262144 -1
-1;
#X connect 0 0 9 0;
#X connect 1 0 2 0;
#X connect 1 0 3 0;
#X connect 2 0 4 0;
#X connect 3 0 5 0;
#X connect 4 0 6 0;
#X connect 9 0 1 0;
#X connect 10 0 13 0;
#X connect 12 0 11 0;
#X connect 12 0 0 0;
#X connect 13 0 22 0;
#X connect 13 1 23 0;
#X connect 14 0 15 0;
#X connect 14 0 16 0;
#X connect 15 0 14 1;
#X connect 16 0 20 0;
#X connect 18 0 19 0;
#X connect 19 0 17 0;
#X connect 19 1 24 0;
#X connect 20 0 10 0;
#X connect 20 1 18 0;
#X connect 21 0 27 0;
#X connect 23 0 25 0;
#X connect 24 0 26 0;
#X connect 25 0 22 1;
#X connect 26 0 17 1;
#X connect 27 0 14 0;
#X connect 28 0 29 0;
#X connect 28 0 31 0;
#X connect 28 0 32 0;
#X connect 29 0 21 0;
#X connect 30 0 21 0;
#X connect 31 0 30 0;
