#N canvas 6 338 467 384 10;
#X obj 37 222 vline~;
#X obj 37 324 dac~;
#X text 49 164 amp \, length dur;
#X obj 37 149 pack;
#X floatatom 142 224 10 0 0 0 - - -, f 10;
#X obj 37 75 bng 15 250 50 0 empty empty empty 17 7 0 10 -4034 -1 -1
;
#X obj 121 206 bng 15 250 50 0 empty empty empty 17 7 0 10 -262144
-1 -1;
#X obj 145 199 hsl 100 15 0 40000 0 0 empty empty Start_Location -2
-8 0 10 -262130 -1 -1 0 1;
#X obj 59 74 r len;
#X obj 101 75 r dur;
#X obj 86 104 f;
#X obj 37 107 f;
#X obj 86 127 *;
#X floatatom 145 97 5 0 0 0 - - -, f 5;
#X obj 148 74 hsl 60 15 0.1 8 0 0 empty empty Speed -2 -8 0 10 -204786
-1 -1 672 1;
#X text 52 47 Vary Speed;
#X msg 37 182 0 \, \$1 \$2;
#X obj 37 256 tabread4~ wooshSample;
#X obj 149 14 loadbang;
#X msg 133 43 1;
#N canvas 0 23 450 300 pan 0;
#X obj 23 29 inlet~ signal;
#X obj 139 32 inlet control;
#X obj 139 66 sig~;
#X obj 139 93 lop~ 1;
#X obj 139 122 *~ 0.25;
#X obj 139 148 -~ 0.25;
#X obj 139 177 cos~;
#X obj 38 214 -~ 0.25;
#X obj 38 243 cos~;
#X obj 23 273 *~;
#X obj 124 273 *~;
#X obj 23 304 outlet~ left;
#X obj 124 305 outlet~ right;
#X connect 0 0 9 0;
#X connect 0 0 10 0;
#X connect 1 0 2 0;
#X connect 2 0 3 0;
#X connect 3 0 4 0;
#X connect 4 0 5 0;
#X connect 5 0 6 0;
#X connect 5 0 7 0;
#X connect 6 0 10 1;
#X connect 7 0 8 0;
#X connect 8 0 9 1;
#X connect 9 0 11 0;
#X connect 10 0 12 0;
#X restore 37 292 pd pan;
#X obj 289 127 tgl 15 0 empty empty empty 17 7 0 10 -204786 -1 -1 1
1;
#X obj 281 256 hsl 128 15 0 1 0 0 empty empty Pan -2 -8 0 10 -204786
-1 -1 8509 1;
#X obj 279 222 line;
#X obj 289 149 metro 4000;
#X msg 279 199 1 2000;
#X msg 336 199 0 2000;
#X obj 336 179 delay 2000;
#X text 321 241 Manual Control;
#X text 310 126 Automate;
#X obj 36 15 inlet start;
#X obj 224 19 inlet speed;
#X connect 0 0 17 0;
#X connect 3 0 16 0;
#X connect 4 0 17 1;
#X connect 5 0 10 0;
#X connect 5 0 11 0;
#X connect 6 0 4 0;
#X connect 7 0 4 0;
#X connect 8 0 11 1;
#X connect 9 0 10 1;
#X connect 10 0 12 0;
#X connect 11 0 3 0;
#X connect 12 0 3 1;
#X connect 13 0 12 1;
#X connect 14 0 13 0;
#X connect 16 0 0 0;
#X connect 16 0 6 0;
#X connect 17 0 20 0;
#X connect 18 0 19 0;
#X connect 18 0 21 0;
#X connect 19 0 14 0;
#X connect 20 0 1 0;
#X connect 20 1 1 1;
#X connect 21 0 24 0;
#X connect 22 0 20 1;
#X connect 23 0 22 0;
#X connect 24 0 25 0;
#X connect 24 0 27 0;
#X connect 25 0 23 0;
#X connect 26 0 23 0;
#X connect 27 0 26 0;
#X connect 30 0 5 0;
#X connect 31 0 14 0;
